<svg width="287" height="394" viewBox="0 0 287 394" fill="none" xmlns="http://www.w3.org/2000/svg">
<path d="M9.04647 364.119C8.26447 364.119 7.5618 363.983 6.93847 363.711C6.32647 363.428 5.8448 363.042 5.49347 362.555C5.14214 362.056 4.9608 361.484 4.94947 360.838H6.59847C6.65514 361.393 6.8818 361.864 7.27847 362.249C7.68647 362.623 8.2758 362.81 9.04647 362.81C9.78314 362.81 10.3611 362.629 10.7805 362.266C11.2111 361.892 11.4265 361.416 11.4265 360.838C11.4265 360.385 11.3018 360.016 11.0525 359.733C10.8031 359.45 10.4915 359.234 10.1175 359.087C9.74347 358.94 9.23914 358.781 8.60447 358.611C7.82247 358.407 7.19347 358.203 6.71747 357.999C6.2528 357.795 5.85047 357.478 5.51047 357.047C5.1818 356.605 5.01747 356.016 5.01747 355.279C5.01747 354.633 5.1818 354.061 5.51047 353.562C5.83914 353.063 6.29814 352.678 6.88747 352.406C7.48814 352.134 8.1738 351.998 8.94447 351.998C10.0551 351.998 10.9618 352.276 11.6645 352.831C12.3785 353.386 12.7808 354.123 12.8715 355.041H11.1715C11.1148 354.588 10.8768 354.191 10.4575 353.851C10.0381 353.5 9.4828 353.324 8.79147 353.324C8.14547 353.324 7.61847 353.494 7.21047 353.834C6.80247 354.163 6.59847 354.627 6.59847 355.228C6.59847 355.659 6.71747 356.01 6.95547 356.282C7.2048 356.554 7.50514 356.764 7.85647 356.911C8.21914 357.047 8.72347 357.206 9.36947 357.387C10.1515 357.602 10.7805 357.818 11.2565 358.033C11.7325 358.237 12.1405 358.56 12.4805 359.002C12.8205 359.433 12.9905 360.022 12.9905 360.77C12.9905 361.348 12.8375 361.892 12.5315 362.402C12.2255 362.912 11.7721 363.326 11.1715 363.643C10.5708 363.96 9.86247 364.119 9.04647 364.119ZM19.891 354.514C20.5937 354.514 21.2283 354.667 21.795 354.973C22.3617 355.268 22.8037 355.715 23.121 356.316C23.4497 356.917 23.614 357.648 23.614 358.509V364H22.084V358.73C22.084 357.801 21.8517 357.092 21.387 356.605C20.9223 356.106 20.2877 355.857 19.483 355.857C18.667 355.857 18.0153 356.112 17.528 356.622C17.052 357.132 16.814 357.874 16.814 358.849V364H15.267V351.42H16.814V356.01C17.12 355.534 17.5393 355.166 18.072 354.905C18.616 354.644 19.2223 354.514 19.891 354.514ZM25.563 359.308C25.563 358.356 25.7557 357.523 26.141 356.809C26.5264 356.084 27.0534 355.523 27.722 355.126C28.402 354.729 29.1557 354.531 29.983 354.531C30.799 354.531 31.5074 354.707 32.108 355.058C32.7087 355.409 33.1564 355.851 33.451 356.384V354.684H35.015V364H33.451V362.266C33.145 362.81 32.686 363.263 32.074 363.626C31.4734 363.977 30.7707 364.153 29.966 364.153C29.1387 364.153 28.3907 363.949 27.722 363.541C27.0534 363.133 26.5264 362.561 26.141 361.824C25.7557 361.087 25.563 360.249 25.563 359.308ZM33.451 359.325C33.451 358.622 33.3094 358.01 33.026 357.489C32.7427 356.968 32.3574 356.571 31.87 356.299C31.394 356.016 30.867 355.874 30.289 355.874C29.711 355.874 29.184 356.01 28.708 356.282C28.232 356.554 27.8524 356.951 27.569 357.472C27.2857 357.993 27.144 358.605 27.144 359.308C27.144 360.022 27.2857 360.645 27.569 361.178C27.8524 361.699 28.232 362.102 28.708 362.385C29.184 362.657 29.711 362.793 30.289 362.793C30.867 362.793 31.394 362.657 31.87 362.385C32.3574 362.102 32.7427 361.699 33.026 361.178C33.3094 360.645 33.451 360.028 33.451 359.325ZM39.1763 356.197C39.4483 355.664 39.8336 355.251 40.3323 354.956C40.8423 354.661 41.46 354.514 42.1853 354.514V356.112H41.7773C40.0433 356.112 39.1763 357.053 39.1763 358.934V364H37.6293V354.684H39.1763V356.197ZM52.4711 358.985C52.4711 359.28 52.4541 359.591 52.4201 359.92H44.9741C45.0308 360.838 45.3424 361.558 45.9091 362.079C46.4871 362.589 47.1841 362.844 48.0001 362.844C48.6688 362.844 49.2241 362.691 49.6661 362.385C50.1194 362.068 50.4368 361.648 50.6181 361.127H52.2841C52.0348 362.022 51.5361 362.753 50.7881 363.32C50.0401 363.875 49.1108 364.153 48.0001 364.153C47.1161 364.153 46.3228 363.955 45.6201 363.558C44.9288 363.161 44.3848 362.6 43.9881 361.875C43.5914 361.138 43.3931 360.288 43.3931 359.325C43.3931 358.362 43.5858 357.517 43.9711 356.792C44.3564 356.067 44.8948 355.511 45.5861 355.126C46.2888 354.729 47.0934 354.531 48.0001 354.531C48.8841 354.531 49.6661 354.724 50.3461 355.109C51.0261 355.494 51.5474 356.027 51.9101 356.707C52.2841 357.376 52.4711 358.135 52.4711 358.985ZM50.8731 358.662C50.8731 358.073 50.7428 357.568 50.4821 357.149C50.2214 356.718 49.8644 356.395 49.4111 356.18C48.9691 355.953 48.4761 355.84 47.9321 355.84C47.1501 355.84 46.4814 356.089 45.9261 356.588C45.3821 357.087 45.0704 357.778 44.9911 358.662H50.8731ZM67.3413 352.151L63.4823 359.529V364H61.9353V359.529L58.0593 352.151H59.7763L62.7003 358.152L65.6243 352.151H67.3413ZM73.0361 364.153C72.1634 364.153 71.3701 363.955 70.6561 363.558C69.9534 363.161 69.3981 362.6 68.9901 361.875C68.5934 361.138 68.3951 360.288 68.3951 359.325C68.3951 358.373 68.5991 357.534 69.0071 356.809C69.4264 356.072 69.9931 355.511 70.7071 355.126C71.4211 354.729 72.2201 354.531 73.1041 354.531C73.9881 354.531 74.7871 354.729 75.5011 355.126C76.2151 355.511 76.7761 356.067 77.1841 356.792C77.6034 357.517 77.8131 358.362 77.8131 359.325C77.8131 360.288 77.5977 361.138 77.1671 361.875C76.7477 362.6 76.1754 363.161 75.4501 363.558C74.7247 363.955 73.9201 364.153 73.0361 364.153ZM73.0361 362.793C73.5914 362.793 74.1127 362.663 74.6001 362.402C75.0874 362.141 75.4784 361.75 75.7731 361.229C76.0791 360.708 76.2321 360.073 76.2321 359.325C76.2321 358.577 76.0847 357.942 75.7901 357.421C75.4954 356.9 75.1101 356.514 74.6341 356.265C74.1581 356.004 73.6424 355.874 73.0871 355.874C72.5204 355.874 71.9991 356.004 71.5231 356.265C71.0584 356.514 70.6844 356.9 70.4011 357.421C70.1177 357.942 69.9761 358.577 69.9761 359.325C69.9761 360.084 70.1121 360.725 70.3841 361.246C70.6674 361.767 71.0414 362.158 71.5061 362.419C71.9707 362.668 72.4807 362.793 73.0361 362.793ZM88.1091 354.684V364H86.5621V362.623C86.2674 363.099 85.8538 363.473 85.3211 363.745C84.7998 364.006 84.2218 364.136 83.5871 364.136C82.8618 364.136 82.2101 363.989 81.6321 363.694C81.0541 363.388 80.5951 362.935 80.2551 362.334C79.9264 361.733 79.7621 361.002 79.7621 360.141V354.684H81.2921V359.937C81.2921 360.855 81.5244 361.563 81.9891 362.062C82.4538 362.549 83.0884 362.793 83.8931 362.793C84.7204 362.793 85.3721 362.538 85.8481 362.028C86.3241 361.518 86.5621 360.776 86.5621 359.801V354.684H88.1091ZM92.2681 356.197C92.5401 355.664 92.9254 355.251 93.4241 354.956C93.9341 354.661 94.5518 354.514 95.2771 354.514V356.112H94.8691C93.1351 356.112 92.2681 357.053 92.2681 358.934V364H90.7211V354.684H92.2681V356.197ZM109.517 355.619C109.517 356.605 109.177 357.427 108.497 358.084C107.828 358.73 106.803 359.053 105.42 359.053H103.142V364H101.595V352.151H105.42C106.757 352.151 107.772 352.474 108.463 353.12C109.166 353.766 109.517 354.599 109.517 355.619ZM105.42 357.778C106.281 357.778 106.916 357.591 107.324 357.217C107.732 356.843 107.936 356.31 107.936 355.619C107.936 354.157 107.097 353.426 105.42 353.426H103.142V357.778H105.42ZM112.987 356.197C113.259 355.664 113.644 355.251 114.143 354.956C114.653 354.661 115.271 354.514 115.996 354.514V356.112H115.588C113.854 356.112 112.987 357.053 112.987 358.934V364H111.44V354.684H112.987V356.197ZM121.845 364.153C120.972 364.153 120.179 363.955 119.465 363.558C118.762 363.161 118.207 362.6 117.799 361.875C117.402 361.138 117.204 360.288 117.204 359.325C117.204 358.373 117.408 357.534 117.816 356.809C118.235 356.072 118.802 355.511 119.516 355.126C120.23 354.729 121.029 354.531 121.913 354.531C122.797 354.531 123.596 354.729 124.31 355.126C125.024 355.511 125.585 356.067 125.993 356.792C126.412 357.517 126.622 358.362 126.622 359.325C126.622 360.288 126.406 361.138 125.976 361.875C125.556 362.6 124.984 363.161 124.259 363.558C123.533 363.955 122.729 364.153 121.845 364.153ZM121.845 362.793C122.4 362.793 122.921 362.663 123.409 362.402C123.896 362.141 124.287 361.75 124.582 361.229C124.888 360.708 125.041 360.073 125.041 359.325C125.041 358.577 124.893 357.942 124.599 357.421C124.304 356.9 123.919 356.514 123.443 356.265C122.967 356.004 122.451 355.874 121.896 355.874C121.329 355.874 120.808 356.004 120.332 356.265C119.867 356.514 119.493 356.9 119.21 357.421C118.926 357.942 118.785 358.577 118.785 359.325C118.785 360.084 118.921 360.725 119.193 361.246C119.476 361.767 119.85 362.158 120.315 362.419C120.779 362.668 121.289 362.793 121.845 362.793ZM139.859 354.514C140.584 354.514 141.23 354.667 141.797 354.973C142.363 355.268 142.811 355.715 143.14 356.316C143.468 356.917 143.633 357.648 143.633 358.509V364H142.103V358.73C142.103 357.801 141.87 357.092 141.406 356.605C140.952 356.106 140.335 355.857 139.553 355.857C138.748 355.857 138.108 356.118 137.632 356.639C137.156 357.149 136.918 357.891 136.918 358.866V364H135.388V358.73C135.388 357.801 135.155 357.092 134.691 356.605C134.237 356.106 133.62 355.857 132.838 355.857C132.033 355.857 131.393 356.118 130.917 356.639C130.441 357.149 130.203 357.891 130.203 358.866V364H128.656V354.684H130.203V356.027C130.509 355.54 130.917 355.166 131.427 354.905C131.948 354.644 132.52 354.514 133.144 354.514C133.926 354.514 134.617 354.69 135.218 355.041C135.818 355.392 136.266 355.908 136.561 356.588C136.821 355.931 137.252 355.421 137.853 355.058C138.453 354.695 139.122 354.514 139.859 354.514ZM150.233 364.153C149.361 364.153 148.567 363.955 147.853 363.558C147.151 363.161 146.595 362.6 146.187 361.875C145.791 361.138 145.592 360.288 145.592 359.325C145.592 358.373 145.796 357.534 146.204 356.809C146.624 356.072 147.19 355.511 147.904 355.126C148.618 354.729 149.417 354.531 150.301 354.531C151.185 354.531 151.984 354.729 152.698 355.126C153.412 355.511 153.973 356.067 154.381 356.792C154.801 357.517 155.01 358.362 155.01 359.325C155.01 360.288 154.795 361.138 154.364 361.875C153.945 362.6 153.373 363.161 152.647 363.558C151.922 363.955 151.117 364.153 150.233 364.153ZM150.233 362.793C150.789 362.793 151.31 362.663 151.797 362.402C152.285 362.141 152.676 361.75 152.97 361.229C153.276 360.708 153.429 360.073 153.429 359.325C153.429 358.577 153.282 357.942 152.987 357.421C152.693 356.9 152.307 356.514 151.831 356.265C151.355 356.004 150.84 355.874 150.284 355.874C149.718 355.874 149.196 356.004 148.72 356.265C148.256 356.514 147.882 356.9 147.598 357.421C147.315 357.942 147.173 358.577 147.173 359.325C147.173 360.084 147.309 360.725 147.581 361.246C147.865 361.767 148.239 362.158 148.703 362.419C149.168 362.668 149.678 362.793 150.233 362.793ZM160.999 358.067C160.999 356.911 161.259 355.874 161.781 354.956C162.302 354.027 163.01 353.301 163.906 352.78C164.812 352.259 165.815 351.998 166.915 351.998C168.207 351.998 169.334 352.31 170.298 352.933C171.261 353.556 171.964 354.44 172.406 355.585H170.553C170.224 354.871 169.748 354.321 169.125 353.936C168.513 353.551 167.776 353.358 166.915 353.358C166.087 353.358 165.345 353.551 164.688 353.936C164.03 354.321 163.515 354.871 163.141 355.585C162.767 356.288 162.58 357.115 162.58 358.067C162.58 359.008 162.767 359.835 163.141 360.549C163.515 361.252 164.03 361.796 164.688 362.181C165.345 362.566 166.087 362.759 166.915 362.759C167.776 362.759 168.513 362.572 169.125 362.198C169.748 361.813 170.224 361.263 170.553 360.549H172.406C171.964 361.682 171.261 362.561 170.298 363.184C169.334 363.796 168.207 364.102 166.915 364.102C165.815 364.102 164.812 363.847 163.906 363.337C163.01 362.816 162.302 362.096 161.781 361.178C161.259 360.26 160.999 359.223 160.999 358.067ZM178.771 364.153C177.899 364.153 177.105 363.955 176.391 363.558C175.689 363.161 175.133 362.6 174.725 361.875C174.329 361.138 174.13 360.288 174.13 359.325C174.13 358.373 174.334 357.534 174.742 356.809C175.162 356.072 175.728 355.511 176.442 355.126C177.156 354.729 177.955 354.531 178.839 354.531C179.723 354.531 180.522 354.729 181.236 355.126C181.95 355.511 182.511 356.067 182.919 356.792C183.339 357.517 183.548 358.362 183.548 359.325C183.548 360.288 183.333 361.138 182.902 361.875C182.483 362.6 181.911 363.161 181.185 363.558C180.46 363.955 179.655 364.153 178.771 364.153ZM178.771 362.793C179.327 362.793 179.848 362.663 180.335 362.402C180.823 362.141 181.214 361.75 181.508 361.229C181.814 360.708 181.967 360.073 181.967 359.325C181.967 358.577 181.82 357.942 181.525 357.421C181.231 356.9 180.845 356.514 180.369 356.265C179.893 356.004 179.378 355.874 178.822 355.874C178.256 355.874 177.734 356.004 177.258 356.265C176.794 356.514 176.42 356.9 176.136 357.421C175.853 357.942 175.711 358.577 175.711 359.325C175.711 360.084 175.847 360.725 176.119 361.246C176.403 361.767 176.777 362.158 177.241 362.419C177.706 362.668 178.216 362.793 178.771 362.793ZM185.004 359.308C185.004 358.356 185.197 357.523 185.582 356.809C185.968 356.084 186.495 355.523 187.163 355.126C187.843 354.729 188.603 354.531 189.441 354.531C190.167 354.531 190.841 354.701 191.464 355.041C192.088 355.37 192.564 355.806 192.892 356.35V351.42H194.456V364H192.892V362.249C192.586 362.804 192.133 363.263 191.532 363.626C190.932 363.977 190.229 364.153 189.424 364.153C188.597 364.153 187.843 363.949 187.163 363.541C186.495 363.133 185.968 362.561 185.582 361.824C185.197 361.087 185.004 360.249 185.004 359.308ZM192.892 359.325C192.892 358.622 192.751 358.01 192.467 357.489C192.184 356.968 191.799 356.571 191.311 356.299C190.835 356.016 190.308 355.874 189.73 355.874C189.152 355.874 188.625 356.01 188.149 356.282C187.673 356.554 187.294 356.951 187.01 357.472C186.727 357.993 186.585 358.605 186.585 359.308C186.585 360.022 186.727 360.645 187.01 361.178C187.294 361.699 187.673 362.102 188.149 362.385C188.625 362.657 189.152 362.793 189.73 362.793C190.308 362.793 190.835 362.657 191.311 362.385C191.799 362.102 192.184 361.699 192.467 361.178C192.751 360.645 192.892 360.028 192.892 359.325ZM205.571 358.985C205.571 359.28 205.554 359.591 205.52 359.92H198.074C198.13 360.838 198.442 361.558 199.009 362.079C199.587 362.589 200.284 362.844 201.1 362.844C201.768 362.844 202.324 362.691 202.766 362.385C203.219 362.068 203.536 361.648 203.718 361.127H205.384C205.134 362.022 204.636 362.753 203.888 363.32C203.14 363.875 202.21 364.153 201.1 364.153C200.216 364.153 199.422 363.955 198.72 363.558C198.028 363.161 197.484 362.6 197.088 361.875C196.691 361.138 196.493 360.288 196.493 359.325C196.493 358.362 196.685 357.517 197.071 356.792C197.456 356.067 197.994 355.511 198.686 355.126C199.388 354.729 200.193 354.531 201.1 354.531C201.984 354.531 202.766 354.724 203.446 355.109C204.126 355.494 204.647 356.027 205.01 356.707C205.384 357.376 205.571 358.135 205.571 358.985ZM203.973 358.662C203.973 358.073 203.842 357.568 203.582 357.149C203.321 356.718 202.964 356.395 202.511 356.18C202.069 355.953 201.576 355.84 201.032 355.84C200.25 355.84 199.581 356.089 199.026 356.588C198.482 357.087 198.17 357.778 198.091 358.662H203.973ZM221.24 364L219.693 362.436C219.115 363.037 218.497 363.484 217.84 363.779C217.183 364.062 216.44 364.204 215.613 364.204C214.797 364.204 214.072 364.057 213.437 363.762C212.814 363.467 212.326 363.048 211.975 362.504C211.635 361.96 211.465 361.325 211.465 360.6C211.465 359.773 211.697 359.047 212.162 358.424C212.638 357.789 213.335 357.291 214.253 356.928C213.89 356.497 213.63 356.101 213.471 355.738C213.312 355.375 213.233 354.979 213.233 354.548C213.233 354.049 213.358 353.602 213.607 353.205C213.868 352.797 214.236 352.48 214.712 352.253C215.188 352.026 215.738 351.913 216.361 351.913C216.973 351.913 217.506 352.032 217.959 352.27C218.412 352.508 218.752 352.842 218.979 353.273C219.206 353.692 219.308 354.163 219.285 354.684H217.738C217.749 354.219 217.619 353.857 217.347 353.596C217.075 353.324 216.724 353.188 216.293 353.188C215.84 353.188 215.471 353.318 215.188 353.579C214.916 353.828 214.78 354.151 214.78 354.548C214.78 354.888 214.871 355.217 215.052 355.534C215.245 355.851 215.562 356.242 216.004 356.707L219.54 360.26L219.846 359.784L221.002 357.846H222.668L221.274 360.26C221.081 360.6 220.855 360.957 220.594 361.331L223.263 364H221.24ZM215.613 362.878C216.225 362.878 216.775 362.759 217.262 362.521C217.761 362.283 218.231 361.915 218.673 361.416L215.188 357.914C213.737 358.469 213.012 359.348 213.012 360.549C213.012 361.218 213.25 361.773 213.726 362.215C214.213 362.657 214.842 362.878 215.613 362.878ZM238.221 355.585C237.892 354.894 237.416 354.361 236.793 353.987C236.169 353.602 235.444 353.409 234.617 353.409C233.789 353.409 233.041 353.602 232.373 353.987C231.715 354.361 231.194 354.905 230.809 355.619C230.435 356.322 230.248 357.138 230.248 358.067C230.248 358.996 230.435 359.812 230.809 360.515C231.194 361.218 231.715 361.762 232.373 362.147C233.041 362.521 233.789 362.708 234.617 362.708C235.773 362.708 236.725 362.362 237.473 361.671C238.221 360.98 238.657 360.045 238.782 358.866H234.056V357.608H240.431V358.798C240.34 359.773 240.034 360.668 239.513 361.484C238.991 362.289 238.306 362.929 237.456 363.405C236.606 363.87 235.659 364.102 234.617 364.102C233.517 364.102 232.514 363.847 231.608 363.337C230.701 362.816 229.981 362.096 229.449 361.178C228.927 360.26 228.667 359.223 228.667 358.067C228.667 356.911 228.927 355.874 229.449 354.956C229.981 354.027 230.701 353.307 231.608 352.797C232.514 352.276 233.517 352.015 234.617 352.015C235.875 352.015 236.985 352.327 237.949 352.95C238.923 353.573 239.632 354.452 240.074 355.585H238.221ZM250.976 358.985C250.976 359.28 250.959 359.591 250.925 359.92H243.479C243.536 360.838 243.847 361.558 244.414 362.079C244.992 362.589 245.689 362.844 246.505 362.844C247.174 362.844 247.729 362.691 248.171 362.385C248.624 362.068 248.942 361.648 249.123 361.127H250.789C250.54 362.022 250.041 362.753 249.293 363.32C248.545 363.875 247.616 364.153 246.505 364.153C245.621 364.153 244.828 363.955 244.125 363.558C243.434 363.161 242.89 362.6 242.493 361.875C242.096 361.138 241.898 360.288 241.898 359.325C241.898 358.362 242.091 357.517 242.476 356.792C242.861 356.067 243.4 355.511 244.091 355.126C244.794 354.729 245.598 354.531 246.505 354.531C247.389 354.531 248.171 354.724 248.851 355.109C249.531 355.494 250.052 356.027 250.415 356.707C250.789 357.376 250.976 358.135 250.976 358.985ZM249.378 358.662C249.378 358.073 249.248 357.568 248.987 357.149C248.726 356.718 248.369 356.395 247.916 356.18C247.474 355.953 246.981 355.84 246.437 355.84C245.655 355.84 244.986 356.089 244.431 356.588C243.887 357.087 243.575 357.778 243.496 358.662H249.378ZM254.905 355.959V361.45C254.905 361.903 255.001 362.226 255.194 362.419C255.387 362.6 255.721 362.691 256.197 362.691H257.336V364H255.942C255.081 364 254.435 363.802 254.004 363.405C253.573 363.008 253.358 362.357 253.358 361.45V355.959H252.151V354.684H253.358V352.338H254.905V354.684H257.336V355.959H254.905ZM271.393 360.753C271.393 361.297 271.257 361.818 270.985 362.317C270.713 362.804 270.31 363.212 269.778 363.541C269.256 363.87 268.627 364.057 267.891 364.102V365.479H266.973V364.102C265.941 364.011 265.103 363.683 264.457 363.116C263.811 362.538 263.482 361.807 263.471 360.923H265.12C265.165 361.399 265.341 361.813 265.647 362.164C265.964 362.515 266.406 362.736 266.973 362.827V358.577C266.213 358.384 265.601 358.186 265.137 357.982C264.672 357.778 264.275 357.461 263.947 357.03C263.618 356.599 263.454 356.021 263.454 355.296C263.454 354.378 263.771 353.619 264.406 353.018C265.052 352.417 265.907 352.083 266.973 352.015V350.604H267.891V352.015C268.854 352.094 269.63 352.406 270.22 352.95C270.809 353.483 271.149 354.18 271.24 355.041H269.591C269.534 354.644 269.358 354.287 269.064 353.97C268.769 353.641 268.378 353.426 267.891 353.324V357.472C268.639 357.665 269.245 357.863 269.71 358.067C270.186 358.26 270.582 358.571 270.9 359.002C271.228 359.433 271.393 360.016 271.393 360.753ZM265.035 355.211C265.035 355.766 265.199 356.191 265.528 356.486C265.856 356.781 266.338 357.024 266.973 357.217V353.29C266.383 353.347 265.913 353.539 265.562 353.868C265.21 354.185 265.035 354.633 265.035 355.211ZM267.891 362.844C268.503 362.776 268.979 362.555 269.319 362.181C269.67 361.807 269.846 361.359 269.846 360.838C269.846 360.283 269.676 359.858 269.336 359.563C268.996 359.257 268.514 359.013 267.891 358.832V362.844ZM274.029 354.803C274.108 353.76 274.51 352.944 275.236 352.355C275.961 351.766 276.902 351.471 278.058 351.471C278.828 351.471 279.491 351.613 280.047 351.896C280.613 352.168 281.038 352.542 281.322 353.018C281.616 353.494 281.764 354.032 281.764 354.633C281.764 355.336 281.56 355.942 281.152 356.452C280.755 356.962 280.234 357.291 279.588 357.438V357.523C280.324 357.704 280.908 358.061 281.339 358.594C281.769 359.127 281.985 359.824 281.985 360.685C281.985 361.331 281.837 361.915 281.543 362.436C281.248 362.946 280.806 363.348 280.217 363.643C279.627 363.938 278.919 364.085 278.092 364.085C276.89 364.085 275.904 363.773 275.134 363.15C274.363 362.515 273.932 361.62 273.842 360.464H275.338C275.417 361.144 275.695 361.699 276.171 362.13C276.647 362.561 277.281 362.776 278.075 362.776C278.868 362.776 279.469 362.572 279.877 362.164C280.296 361.745 280.506 361.206 280.506 360.549C280.506 359.699 280.222 359.087 279.656 358.713C279.089 358.339 278.233 358.152 277.089 358.152H276.698V356.86H277.106C278.148 356.849 278.936 356.679 279.469 356.35C280.001 356.01 280.268 355.489 280.268 354.786C280.268 354.185 280.069 353.704 279.673 353.341C279.287 352.978 278.732 352.797 278.007 352.797C277.304 352.797 276.737 352.978 276.307 353.341C275.876 353.704 275.621 354.191 275.542 354.803H274.029ZM87.3835 376.151V377.409H82.2325V381.404H86.4145V382.662H82.2325V388H80.6855V376.151H87.3835ZM93.3149 388.153C92.4422 388.153 91.6489 387.955 90.9349 387.558C90.2322 387.161 89.6769 386.6 89.2689 385.875C88.8722 385.138 88.6739 384.288 88.6739 383.325C88.6739 382.373 88.8779 381.534 89.2859 380.809C89.7052 380.072 90.2719 379.511 90.9859 379.126C91.6999 378.729 92.4989 378.531 93.3829 378.531C94.2669 378.531 95.0659 378.729 95.7799 379.126C96.4939 379.511 97.0549 380.067 97.4629 380.792C97.8822 381.517 98.0919 382.362 98.0919 383.325C98.0919 384.288 97.8765 385.138 97.4459 385.875C97.0265 386.6 96.4542 387.161 95.7289 387.558C95.0035 387.955 94.1989 388.153 93.3149 388.153ZM93.3149 386.793C93.8702 386.793 94.3915 386.663 94.8789 386.402C95.3662 386.141 95.7572 385.75 96.0519 385.229C96.3579 384.708 96.5109 384.073 96.5109 383.325C96.5109 382.577 96.3635 381.942 96.0689 381.421C95.7742 380.9 95.3889 380.514 94.9129 380.265C94.4369 380.004 93.9212 379.874 93.3659 379.874C92.7992 379.874 92.2779 380.004 91.8019 380.265C91.3372 380.514 90.9632 380.9 90.6799 381.421C90.3965 381.942 90.2549 382.577 90.2549 383.325C90.2549 384.084 90.3909 384.725 90.6629 385.246C90.9462 385.767 91.3202 386.158 91.7849 386.419C92.2495 386.668 92.7595 386.793 93.3149 386.793ZM101.673 380.197C101.945 379.664 102.33 379.251 102.829 378.956C103.339 378.661 103.957 378.514 104.682 378.514V380.112H104.274C102.54 380.112 101.673 381.053 101.673 382.934V388H100.126V378.684H101.673V380.197ZM112.547 377.409V381.37H116.865V382.645H112.547V386.725H117.375V388H111V376.134H117.375V377.409H112.547ZM119.138 383.308C119.138 382.356 119.33 381.523 119.716 380.809C120.101 380.084 120.628 379.523 121.297 379.126C121.977 378.729 122.73 378.531 123.558 378.531C124.374 378.531 125.082 378.707 125.683 379.058C126.283 379.409 126.731 379.851 127.026 380.384V378.684H128.59V388H127.026V386.266C126.72 386.81 126.261 387.263 125.649 387.626C125.048 387.977 124.345 388.153 123.541 388.153C122.713 388.153 121.965 387.949 121.297 387.541C120.628 387.133 120.101 386.561 119.716 385.824C119.33 385.087 119.138 384.249 119.138 383.308ZM127.026 383.325C127.026 382.622 126.884 382.01 126.601 381.489C126.317 380.968 125.932 380.571 125.445 380.299C124.969 380.016 124.442 379.874 123.864 379.874C123.286 379.874 122.759 380.01 122.283 380.282C121.807 380.554 121.427 380.951 121.144 381.472C120.86 381.993 120.719 382.605 120.719 383.308C120.719 384.022 120.86 384.645 121.144 385.178C121.427 385.699 121.807 386.102 122.283 386.385C122.759 386.657 123.286 386.793 123.864 386.793C124.442 386.793 124.969 386.657 125.445 386.385C125.932 386.102 126.317 385.699 126.601 385.178C126.884 384.645 127.026 384.028 127.026 383.325ZM130.626 383.325C130.626 382.362 130.819 381.523 131.204 380.809C131.589 380.084 132.122 379.523 132.802 379.126C133.493 378.729 134.281 378.531 135.165 378.531C136.31 378.531 137.25 378.809 137.987 379.364C138.735 379.919 139.228 380.69 139.466 381.676H137.8C137.641 381.109 137.33 380.662 136.865 380.333C136.412 380.004 135.845 379.84 135.165 379.84C134.281 379.84 133.567 380.146 133.023 380.758C132.479 381.359 132.207 382.214 132.207 383.325C132.207 384.447 132.479 385.314 133.023 385.926C133.567 386.538 134.281 386.844 135.165 386.844C135.845 386.844 136.412 386.685 136.865 386.368C137.318 386.051 137.63 385.597 137.8 385.008H139.466C139.217 385.96 138.718 386.725 137.97 387.303C137.222 387.87 136.287 388.153 135.165 388.153C134.281 388.153 133.493 387.955 132.802 387.558C132.122 387.161 131.589 386.6 131.204 385.875C130.819 385.15 130.626 384.3 130.626 383.325ZM146.154 378.514C146.857 378.514 147.492 378.667 148.058 378.973C148.625 379.268 149.067 379.715 149.384 380.316C149.713 380.917 149.877 381.648 149.877 382.509V388H148.347V382.73C148.347 381.801 148.115 381.092 147.65 380.605C147.186 380.106 146.551 379.857 145.746 379.857C144.93 379.857 144.279 380.112 143.791 380.622C143.315 381.132 143.077 381.874 143.077 382.849V388H141.53V375.42H143.077V380.01C143.383 379.534 143.803 379.166 144.335 378.905C144.879 378.644 145.486 378.514 146.154 378.514ZM163.634 376.151V377.409H158.483V381.404H162.665V382.662H158.483V388H156.936V376.151H163.634ZM167.05 380.197C167.322 379.664 167.707 379.251 168.206 378.956C168.716 378.661 169.334 378.514 170.059 378.514V380.112H169.651C167.917 380.112 167.05 381.053 167.05 382.934V388H165.503V378.684H167.05V380.197ZM172.644 377.171C172.349 377.171 172.1 377.069 171.896 376.865C171.692 376.661 171.59 376.412 171.59 376.117C171.59 375.822 171.692 375.573 171.896 375.369C172.1 375.165 172.349 375.063 172.644 375.063C172.927 375.063 173.165 375.165 173.358 375.369C173.562 375.573 173.664 375.822 173.664 376.117C173.664 376.412 173.562 376.661 173.358 376.865C173.165 377.069 172.927 377.171 172.644 377.171ZM173.392 378.684V388H171.845V378.684H173.392ZM184.528 382.985C184.528 383.28 184.511 383.591 184.477 383.92H177.031C177.088 384.838 177.4 385.558 177.966 386.079C178.544 386.589 179.241 386.844 180.057 386.844C180.726 386.844 181.281 386.691 181.723 386.385C182.177 386.068 182.494 385.648 182.675 385.127H184.341C184.092 386.022 183.593 386.753 182.845 387.32C182.097 387.875 181.168 388.153 180.057 388.153C179.173 388.153 178.38 387.955 177.677 387.558C176.986 387.161 176.442 386.6 176.045 385.875C175.649 385.138 175.45 384.288 175.45 383.325C175.45 382.362 175.643 381.517 176.028 380.792C176.414 380.067 176.952 379.511 177.643 379.126C178.346 378.729 179.151 378.531 180.057 378.531C180.941 378.531 181.723 378.724 182.403 379.109C183.083 379.494 183.605 380.027 183.967 380.707C184.341 381.376 184.528 382.135 184.528 382.985ZM182.93 382.662C182.93 382.073 182.8 381.568 182.539 381.149C182.279 380.718 181.922 380.395 181.468 380.18C181.026 379.953 180.533 379.84 179.989 379.84C179.207 379.84 178.539 380.089 177.983 380.588C177.439 381.087 177.128 381.778 177.048 382.662H182.93ZM191.109 378.514C192.243 378.514 193.161 378.86 193.863 379.551C194.566 380.231 194.917 381.217 194.917 382.509V388H193.387V382.73C193.387 381.801 193.155 381.092 192.69 380.605C192.226 380.106 191.591 379.857 190.786 379.857C189.97 379.857 189.319 380.112 188.831 380.622C188.355 381.132 188.117 381.874 188.117 382.849V388H186.57V378.684H188.117V380.01C188.423 379.534 188.837 379.166 189.358 378.905C189.891 378.644 190.475 378.514 191.109 378.514ZM196.866 383.308C196.866 382.356 197.059 381.523 197.444 380.809C197.83 380.084 198.357 379.523 199.025 379.126C199.705 378.729 200.465 378.531 201.303 378.531C202.029 378.531 202.703 378.701 203.326 379.041C203.95 379.37 204.426 379.806 204.754 380.35V375.42H206.318V388H204.754V386.249C204.448 386.804 203.995 387.263 203.394 387.626C202.794 387.977 202.091 388.153 201.286 388.153C200.459 388.153 199.705 387.949 199.025 387.541C198.357 387.133 197.83 386.561 197.444 385.824C197.059 385.087 196.866 384.249 196.866 383.308ZM204.754 383.325C204.754 382.622 204.613 382.01 204.329 381.489C204.046 380.968 203.661 380.571 203.173 380.299C202.697 380.016 202.17 379.874 201.592 379.874C201.014 379.874 200.487 380.01 200.011 380.282C199.535 380.554 199.156 380.951 198.872 381.472C198.589 381.993 198.447 382.605 198.447 383.308C198.447 384.022 198.589 384.645 198.872 385.178C199.156 385.699 199.535 386.102 200.011 386.385C200.487 386.657 201.014 386.793 201.592 386.793C202.17 386.793 202.697 386.657 203.173 386.385C203.661 386.102 204.046 385.699 204.329 385.178C204.613 384.645 204.754 384.028 204.754 383.325Z" fill="#666666"/>
<path d="M69.4718 329L65.7758 322.472H64.1918V329H60.8318V312.248H67.1198C68.4158 312.248 69.5198 312.48 70.4318 312.944C71.3438 313.392 72.0238 314.008 72.4718 314.792C72.9358 315.56 73.1678 316.424 73.1678 317.384C73.1678 318.488 72.8478 319.488 72.2078 320.384C71.5678 321.264 70.6158 321.872 69.3518 322.208L73.3598 329H69.4718ZM64.1918 319.952H66.9998C67.9118 319.952 68.5918 319.736 69.0398 319.304C69.4878 318.856 69.7118 318.24 69.7118 317.456C69.7118 316.688 69.4878 316.096 69.0398 315.68C68.5918 315.248 67.9118 315.032 66.9998 315.032H64.1918V319.952ZM88.5668 322.064C88.5668 322.544 88.5348 322.976 88.4708 323.36H78.7508C78.8308 324.32 79.1668 325.072 79.7588 325.616C80.3508 326.16 81.0788 326.432 81.9428 326.432C83.1908 326.432 84.0788 325.896 84.6068 324.824H88.2308C87.8468 326.104 87.1108 327.16 86.0228 327.992C84.9348 328.808 83.5988 329.216 82.0148 329.216C80.7348 329.216 79.5828 328.936 78.5588 328.376C77.5508 327.8 76.7588 326.992 76.1828 325.952C75.6228 324.912 75.3428 323.712 75.3428 322.352C75.3428 320.976 75.6228 319.768 76.1828 318.728C76.7428 317.688 77.5268 316.888 78.5348 316.328C79.5428 315.768 80.7028 315.488 82.0148 315.488C83.2788 315.488 84.4068 315.76 85.3988 316.304C86.4068 316.848 87.1828 317.624 87.7268 318.632C88.2868 319.624 88.5668 320.768 88.5668 322.064ZM85.0868 321.104C85.0708 320.24 84.7588 319.552 84.1508 319.04C83.5428 318.512 82.7988 318.248 81.9188 318.248C81.0868 318.248 80.3828 318.504 79.8068 319.016C79.2468 319.512 78.9028 320.208 78.7748 321.104H85.0868ZM97.1153 318.464H94.7873V329H91.3793V318.464H89.8673V315.704H91.3793V315.032C91.3793 313.4 91.8433 312.2 92.7713 311.432C93.6993 310.664 95.0993 310.304 96.9713 310.352V313.184C96.1553 313.168 95.5873 313.304 95.2673 313.592C94.9473 313.88 94.7873 314.4 94.7873 315.152V315.704H97.1153V318.464ZM111.653 322.064C111.653 322.544 111.621 322.976 111.557 323.36H101.837C101.917 324.32 102.253 325.072 102.845 325.616C103.437 326.16 104.165 326.432 105.029 326.432C106.277 326.432 107.165 325.896 107.693 324.824H111.317C110.933 326.104 110.197 327.16 109.109 327.992C108.021 328.808 106.685 329.216 105.101 329.216C103.821 329.216 102.669 328.936 101.645 328.376C100.637 327.8 99.8447 326.992 99.2687 325.952C98.7087 324.912 98.4287 323.712 98.4287 322.352C98.4287 320.976 98.7087 319.768 99.2687 318.728C99.8287 317.688 100.613 316.888 101.621 316.328C102.629 315.768 103.789 315.488 105.101 315.488C106.365 315.488 107.493 315.76 108.485 316.304C109.493 316.848 110.269 317.624 110.813 318.632C111.373 319.624 111.653 320.768 111.653 322.064ZM108.173 321.104C108.157 320.24 107.845 319.552 107.237 319.04C106.629 318.512 105.885 318.248 105.005 318.248C104.173 318.248 103.469 318.504 102.893 319.016C102.333 319.512 101.989 320.208 101.861 321.104H108.173ZM117.465 317.768C117.897 317.064 118.457 316.512 119.145 316.112C119.849 315.712 120.649 315.512 121.545 315.512V319.04H120.657C119.601 319.04 118.801 319.288 118.257 319.784C117.729 320.28 117.465 321.144 117.465 322.376V329H114.105V315.704H117.465V317.768ZM139.799 325.808H133.127L132.023 329H128.495L134.519 312.224H138.431L144.455 329H140.903L139.799 325.808ZM138.887 323.12L136.463 316.112L134.039 323.12H138.887ZM162.77 312.248V314.96H155.786V319.256H161.138V321.92H155.786V329H152.426V312.248H162.77ZM168.512 317.768C168.944 317.064 169.504 316.512 170.192 316.112C170.896 315.712 171.696 315.512 172.592 315.512V319.04H171.704C170.648 319.04 169.848 319.288 169.304 319.784C168.776 320.28 168.512 321.144 168.512 322.376V329H165.152V315.704H168.512V317.768ZM176.559 314.12C175.967 314.12 175.471 313.936 175.071 313.568C174.687 313.184 174.495 312.712 174.495 312.152C174.495 311.592 174.687 311.128 175.071 310.76C175.471 310.376 175.967 310.184 176.559 310.184C177.151 310.184 177.639 310.376 178.023 310.76C178.423 311.128 178.623 311.592 178.623 312.152C178.623 312.712 178.423 313.184 178.023 313.568C177.639 313.936 177.151 314.12 176.559 314.12ZM178.215 315.704V329H174.855V315.704H178.215ZM193.895 322.064C193.895 322.544 193.863 322.976 193.799 323.36H184.079C184.159 324.32 184.495 325.072 185.087 325.616C185.679 326.16 186.407 326.432 187.271 326.432C188.519 326.432 189.407 325.896 189.935 324.824H193.559C193.175 326.104 192.439 327.16 191.351 327.992C190.263 328.808 188.927 329.216 187.343 329.216C186.063 329.216 184.911 328.936 183.887 328.376C182.879 327.8 182.087 326.992 181.511 325.952C180.951 324.912 180.671 323.712 180.671 322.352C180.671 320.976 180.951 319.768 181.511 318.728C182.071 317.688 182.855 316.888 183.863 316.328C184.871 315.768 186.031 315.488 187.343 315.488C188.607 315.488 189.735 315.76 190.727 316.304C191.735 316.848 192.511 317.624 193.055 318.632C193.615 319.624 193.895 320.768 193.895 322.064ZM190.415 321.104C190.399 320.24 190.087 319.552 189.479 319.04C188.871 318.512 188.127 318.248 187.247 318.248C186.415 318.248 185.711 318.504 185.135 319.016C184.575 319.512 184.231 320.208 184.103 321.104H190.415ZM203.715 315.512C205.299 315.512 206.579 316.016 207.555 317.024C208.531 318.016 209.019 319.408 209.019 321.2V329H205.659V321.656C205.659 320.6 205.395 319.792 204.867 319.232C204.339 318.656 203.619 318.368 202.707 318.368C201.779 318.368 201.043 318.656 200.499 319.232C199.971 319.792 199.707 320.6 199.707 321.656V329H196.347V315.704H199.707V317.36C200.155 316.784 200.723 316.336 201.411 316.016C202.115 315.68 202.883 315.512 203.715 315.512ZM211.351 322.304C211.351 320.96 211.615 319.768 212.143 318.728C212.687 317.688 213.423 316.888 214.351 316.328C215.279 315.768 216.311 315.488 217.447 315.488C218.311 315.488 219.135 315.68 219.919 316.064C220.703 316.432 221.327 316.928 221.791 317.552V311.24H225.199V329H221.791V327.032C221.375 327.688 220.791 328.216 220.039 328.616C219.287 329.016 218.415 329.216 217.423 329.216C216.303 329.216 215.279 328.928 214.351 328.352C213.423 327.776 212.687 326.968 212.143 325.928C211.615 324.872 211.351 323.664 211.351 322.304ZM221.815 322.352C221.815 321.536 221.655 320.84 221.335 320.264C221.015 319.672 220.583 319.224 220.039 318.92C219.495 318.6 218.911 318.44 218.287 318.44C217.663 318.44 217.087 318.592 216.559 318.896C216.031 319.2 215.599 319.648 215.263 320.24C214.943 320.816 214.783 321.504 214.783 322.304C214.783 323.104 214.943 323.808 215.263 324.416C215.599 325.008 216.031 325.464 216.559 325.784C217.103 326.104 217.679 326.264 218.287 326.264C218.911 326.264 219.495 326.112 220.039 325.808C220.583 325.488 221.015 325.04 221.335 324.464C221.655 323.872 221.815 323.168 221.815 322.352Z" fill="#212121"/>
<path d="M216.379 121.251V118.768L214.04 119.603L147.898 143.225L146.737 143.64V144.873V231.365V234.197L149.269 232.93L215.412 199.859L216.379 199.375V198.294V121.251ZM141.793 136.728L216.403 110.082L217.777 113.93L219.425 113.341L221.073 112.753L219.807 109.207C222.34 109.267 224.551 111.334 224.551 114.074V201.42C224.551 203.262 223.51 204.947 221.862 205.771L145.604 243.9C142.37 245.517 138.564 243.165 138.564 239.549V141.309C138.564 139.253 139.857 137.42 141.793 136.728Z" fill="#141718" stroke="#F3F5F6" stroke-width="3.5" stroke-linecap="round"/>
<path d="M71.2608 119.603L68.9222 118.768V121.251V198.294V199.375L69.8896 199.859L136.032 232.93L138.565 234.197V231.365V144.873V143.64L137.403 143.225L71.2608 119.603ZM63.4389 205.771L62.6563 207.336L63.4389 205.771C61.7909 204.947 60.75 203.262 60.75 201.42V114.074C60.75 110.71 64.0824 108.362 67.2503 109.493L143.509 136.728C145.445 137.42 146.737 139.253 146.737 141.309V239.549C146.737 243.165 142.931 245.517 139.697 243.9L63.4389 205.771Z" fill="#141718" stroke="#F3F5F6" stroke-width="3.5" stroke-linecap="round"/>
<path d="M143.239 89.7277L142.65 89.5175L142.062 89.7277L81.5992 111.321L76.9846 112.97L81.5992 114.618L142.062 136.211L142.65 136.422L143.239 136.211L203.702 114.618L208.316 112.97L203.702 111.321L143.239 89.7277ZM144.286 81.424L144.316 81.4345L219.787 108.389C224.092 109.926 224.092 116.013 219.787 117.55L144.293 144.513C144.289 144.514 144.285 144.515 144.281 144.517C143.227 144.892 142.075 144.892 141.02 144.517C141.017 144.516 141.014 144.515 141.011 144.514L65.5134 117.55C61.2091 116.013 61.2091 109.926 65.5134 108.389L65.5754 108.367L141.014 81.424C142.072 81.0462 143.228 81.0462 144.286 81.424ZM141.096 144.546C141.103 144.549 141.108 144.551 141.11 144.552L141.108 144.552C141.105 144.55 141.1 144.548 141.096 144.546ZM64.9248 106.741L64.9248 106.741L64.9248 106.741Z" fill="#141718" stroke="#F3F5F6" stroke-width="3.5" stroke-linecap="round"/>
<path fill-rule="evenodd" clip-rule="evenodd" d="M121.288 7.80249C122.226 4.13135 127.13 3.41984 129.073 6.67316L135.623 17.6456C135.74 17.8415 135.957 17.9555 136.185 17.9409L148.938 17.1227C152.719 16.8801 154.911 21.3248 152.417 24.1774L144.006 33.7982C143.856 33.97 143.815 34.2114 143.899 34.4234L148.618 46.2993C150.017 49.8206 146.467 53.2791 142.984 51.7887L131.235 46.7623C131.025 46.6725 130.783 46.7077 130.607 46.8534L120.771 55.0113C117.854 57.4301 113.468 55.1228 113.809 51.3492L114.959 38.6219C114.979 38.3946 114.871 38.175 114.678 38.0529L103.88 31.2189C100.678 29.1926 101.517 24.3081 105.211 23.4662L117.671 20.6268C117.893 20.5761 118.069 20.4052 118.125 20.1841L121.288 7.80249ZM125.938 8.5448C125.66 8.08004 124.96 8.18169 124.826 8.70613L121.663 21.0877C121.268 22.6354 120.04 23.8318 118.482 24.1867L106.022 27.0262C105.495 27.1464 105.375 27.8442 105.832 28.1337L116.63 34.9677C117.98 35.822 118.739 37.3595 118.595 38.9504L117.445 51.6777C117.396 52.2168 118.023 52.5464 118.44 52.2009L128.276 44.043C129.506 43.0232 131.202 42.7771 132.671 43.4054L144.42 48.4318C144.918 48.6447 145.425 48.1507 145.225 47.6476L140.506 35.7717C139.916 34.2873 140.206 32.5976 141.258 31.395L149.669 21.7742C150.025 21.3667 149.712 20.7318 149.172 20.7664L136.419 21.5846C134.825 21.6869 133.307 20.8887 132.488 19.5172L125.938 8.5448Z" fill="#141718"/>
<path d="M123.191 8.78584C123.713 6.74097 126.445 6.34465 127.527 8.15679L133.913 18.8524C134.369 19.6163 135.214 20.0609 136.102 20.0039L148.533 19.2064C150.639 19.0712 151.86 21.547 150.471 23.1359L142.272 32.514C141.687 33.1838 141.525 34.125 141.853 34.9518L146.453 46.5281C147.233 48.4894 145.256 50.4159 143.315 49.5857L131.863 44.6861C131.044 44.3361 130.099 44.4733 129.415 45.0412L119.826 52.9933C118.202 54.3406 115.759 53.0555 115.949 50.9535L117.069 38.5473C117.149 37.6612 116.727 36.8047 115.975 36.3289L105.449 29.6673C103.666 28.5386 104.133 25.8179 106.191 25.349L118.336 22.5812C119.204 22.3835 119.888 21.7171 120.108 20.855L123.191 8.78584Z" fill="#141718"/>
<path fill-rule="evenodd" clip-rule="evenodd" d="M198.077 46.0517C200.434 45.0492 202.829 47.3927 201.878 49.7714L198.67 57.7939C198.613 57.9371 198.641 58.1004 198.742 58.2168L204.415 64.7337C206.097 66.666 204.608 69.6679 202.052 69.4984L193.431 68.9266C193.277 68.9163 193.13 68.9931 193.051 69.1254L188.605 76.5344C187.287 78.7311 183.972 78.2429 183.344 75.7594L181.224 67.3835C181.186 67.234 181.067 67.1182 180.917 67.0836L172.497 65.1456C170.001 64.5709 169.441 61.2673 171.608 59.902L178.919 55.2972C179.049 55.215 179.123 55.0666 179.109 54.913L178.351 46.3063C178.126 43.7544 181.095 42.2008 183.063 43.8405L189.702 49.3705C189.82 49.4692 189.984 49.4934 190.126 49.433L198.077 46.0517ZM199.586 48.8548C199.722 48.515 199.38 48.1802 199.043 48.3235L191.092 51.7047C190.098 52.1273 188.951 51.9584 188.122 51.2672L181.483 45.7372C181.202 45.503 180.778 45.7249 180.81 46.0895L181.569 54.6962C181.663 55.772 181.148 56.8104 180.235 57.386L172.924 61.9908C172.614 62.1858 172.694 62.6578 173.051 62.7399L181.471 64.6779C182.523 64.9201 183.352 65.7308 183.617 66.7778L185.737 75.1537C185.827 75.5084 186.3 75.5782 186.489 75.2644L190.934 67.8554C191.489 66.9293 192.516 66.3919 193.594 66.4634L202.215 67.0352C202.58 67.0594 202.793 66.6306 202.553 66.3545L196.88 59.8376C196.171 59.0229 195.977 57.8801 196.378 56.8773L199.586 48.8548Z" fill="#141718"/>
<path d="M198.329 47.4777C199.642 46.9193 200.976 48.2247 200.446 49.5496L197.319 57.3697C197.096 57.9283 197.204 58.5648 197.599 59.0186L203.129 65.3711C204.065 66.4474 203.236 68.1195 201.812 68.0251L193.409 67.4677C192.809 67.4279 192.237 67.7272 191.927 68.2431L187.594 75.4651C186.86 76.6887 185.014 76.4167 184.663 75.0334L182.597 66.8689C182.449 66.2857 181.988 65.8341 181.401 65.6992L173.194 63.8101C171.803 63.49 171.491 61.6499 172.699 60.8894L179.825 56.4008C180.334 56.0802 180.621 55.5018 180.568 54.9025L179.828 46.513C179.703 45.0915 181.357 44.2262 182.453 45.1395L188.924 50.53C189.386 50.915 190.025 51.0091 190.579 50.7737L198.329 47.4777Z" fill="#141718"/>
<path fill-rule="evenodd" clip-rule="evenodd" d="M87.5075 56.3211C89.0086 55.191 91.1273 56.4363 90.8703 58.2975L90.0037 64.5748C89.9882 64.6869 90.0367 64.7982 90.1294 64.8632L95.3184 68.5004C96.857 69.5788 96.3274 71.9786 94.4779 72.3094L88.24 73.4249C88.1286 73.4448 88.0377 73.5254 88.0046 73.6336L86.1489 79.6927C85.5987 81.4892 83.1527 81.7271 82.2666 80.0703L79.278 74.4824C79.2247 74.3826 79.12 74.3211 79.0068 74.323L72.6709 74.4305C70.7923 74.4624 69.8102 72.2096 71.112 70.8549L75.5029 66.2859C75.5813 66.2043 75.6075 66.0857 75.5707 65.9787L73.5105 59.9861C72.8997 58.2093 74.7387 56.5791 76.4294 57.3986L82.1317 60.1627C82.2335 60.212 82.3544 60.2003 82.4448 60.1322L87.5075 56.3211ZM89.0768 58.0499C89.1135 57.784 88.8108 57.6061 88.5964 57.7675L83.5337 61.5787C82.9009 62.0551 82.0547 62.1374 81.342 61.7919L75.6397 59.0278C75.3982 58.9107 75.1355 59.1436 75.2227 59.3975L77.2829 65.3901C77.5404 66.1391 77.3572 66.9693 76.8084 67.5404L72.4175 72.1095C72.2315 72.303 72.3718 72.6248 72.6402 72.6203L78.9761 72.5128C79.7681 72.4993 80.501 72.9301 80.8746 73.6286L83.8631 79.2164C83.9897 79.4531 84.3392 79.4191 84.4178 79.1625L86.2734 73.1034C86.5054 72.346 87.1416 71.7821 87.9213 71.6427L94.1592 70.5271C94.4234 70.4799 94.499 70.1371 94.2792 69.983L89.0902 66.3458C88.4416 65.8911 88.1018 65.1118 88.2101 64.3272L89.0768 58.0499Z" fill="#141718"/>
<path d="M87.9394 57.2918C88.7756 56.6624 89.9557 57.356 89.8126 58.3927L88.9678 64.5116C88.9074 64.9487 89.0967 65.3828 89.4579 65.636L94.5161 69.1814C95.3731 69.7821 95.0781 71.1189 94.0479 71.3031L87.9674 72.3905C87.5331 72.4682 87.1787 72.7823 87.0495 73.2041L85.2407 79.1103C84.9342 80.111 83.5717 80.2435 83.0782 79.3207L80.165 73.8738C79.9569 73.4847 79.5487 73.2448 79.1076 73.2523L72.9315 73.3571C71.8851 73.3748 71.338 72.12 72.0632 71.3654L76.3433 66.9117C76.649 66.5935 76.751 66.1311 76.6076 65.7139L74.5994 59.8725C74.2592 58.8828 75.2835 57.9747 76.2253 58.4312L81.7836 61.1255C82.1807 61.318 82.652 61.2721 83.0045 61.0068L87.9394 57.2918Z" fill="#141718"/>
</svg>
