<svg width="33" height="34" viewBox="0 0 33 34" fill="none" xmlns="http://www.w3.org/2000/svg">
<path d="M13.7268 4.863C14.3894 2.13161 18.2749 2.13161 18.9376 4.863C19.037 5.27333 19.2319 5.65438 19.5064 5.97515C19.7809 6.29592 20.1273 6.54733 20.5174 6.70893C20.9074 6.87053 21.3301 6.93775 21.7511 6.90511C22.172 6.87248 22.5793 6.74091 22.9398 6.52112C25.3398 5.05898 28.0883 7.80593 26.6262 10.2076C26.4067 10.5679 26.2754 10.9749 26.2428 11.3956C26.2102 11.8162 26.2774 12.2386 26.4388 12.6284C26.6002 13.0183 26.8513 13.3645 27.1717 13.639C27.4921 13.9135 27.8728 14.1085 28.2828 14.2082C31.0142 14.8708 31.0142 18.7564 28.2828 19.419C27.8724 19.5184 27.4914 19.7133 27.1706 19.9878C26.8498 20.2624 26.5984 20.6088 26.4368 20.9988C26.2752 21.3889 26.208 21.8116 26.2406 22.2325C26.2733 22.6534 26.4049 23.0607 26.6246 23.4212C28.0868 25.8213 25.3398 28.5698 22.9382 27.1076C22.5779 26.8882 22.1708 26.7568 21.7502 26.7242C21.3295 26.6917 20.9071 26.7588 20.5173 26.9203C20.1275 27.0817 19.7813 27.3328 19.5068 27.6532C19.2323 27.9736 19.0373 28.3542 18.9376 28.7642C18.2749 31.4956 14.3894 31.4956 13.7268 28.7642C13.6273 28.3539 13.4324 27.9728 13.1579 27.6521C12.8834 27.3313 12.537 27.0799 12.147 26.9183C11.7569 26.7567 11.3342 26.6895 10.9133 26.7221C10.4923 26.7547 10.085 26.8863 9.72456 27.1061C7.32448 28.5682 4.57598 25.8213 6.03812 23.4196C6.25759 23.0593 6.38895 22.6523 6.42151 22.2316C6.45407 21.811 6.38692 21.3886 6.22551 20.9988C6.06409 20.6089 5.81298 20.2627 5.49257 19.9882C5.17217 19.7137 4.79151 19.5187 4.38155 19.419C1.65016 18.7564 1.65016 14.8708 4.38155 14.2082C4.79188 14.1088 5.17294 13.9139 5.4937 13.6394C5.81447 13.3648 6.06589 13.0185 6.22749 12.6284C6.38909 12.2383 6.4563 11.8156 6.42367 11.3947C6.39103 10.9738 6.25946 10.5665 6.03967 10.206C4.57754 7.80593 7.32448 5.05743 9.72611 6.51956C11.2754 7.46528 13.2975 6.62844 13.7268 4.863Z" stroke="#141718" stroke-width="3.06231" stroke-linecap="round" stroke-linejoin="round"/>
<path d="M20.9988 16.8138C20.9988 18.0514 20.5071 19.2384 19.632 20.1135C18.7569 20.9886 17.57 21.4802 16.3324 21.4802C15.0948 21.4802 13.9079 20.9886 13.0328 20.1135C12.1577 19.2384 11.666 18.0514 11.666 16.8138C11.666 15.5762 12.1577 14.3893 13.0328 13.5142C13.9079 12.6391 15.0948 12.1475 16.3324 12.1475C17.57 12.1475 18.7569 12.6391 19.632 13.5142C20.5071 14.3893 20.9988 15.5762 20.9988 16.8138V16.8138Z" stroke="#141718" stroke-width="4.08309" stroke-linecap="round" stroke-linejoin="round"/>
</svg>
