<svg width="37" height="9" viewBox="0 0 37 9" fill="none" xmlns="http://www.w3.org/2000/svg">
<path d="M18.4997 6.45817C19.5812 6.45817 20.458 5.58139 20.458 4.49984C20.458 3.41828 19.5812 2.5415 18.4997 2.5415C17.4181 2.5415 16.5413 3.41828 16.5413 4.49984C16.5413 5.58139 17.4181 6.45817 18.4997 6.45817Z" stroke="#CBCCCD" stroke-width="3.91667" stroke-linecap="round" stroke-linejoin="round"/>
<path d="M32.208 6.45817C33.2896 6.45817 34.1663 5.58139 34.1663 4.49984C34.1663 3.41828 33.2896 2.5415 32.208 2.5415C31.1265 2.5415 30.2497 3.41828 30.2497 4.49984C30.2497 5.58139 31.1265 6.45817 32.208 6.45817Z" stroke="#CBCCCD" stroke-width="3.91667" stroke-linecap="round" stroke-linejoin="round"/>
<path d="M4.79134 6.45817C5.8729 6.45817 6.74967 5.58139 6.74967 4.49984C6.74967 3.41828 5.8729 2.5415 4.79134 2.5415C3.70978 2.5415 2.83301 3.41828 2.83301 4.49984C2.83301 5.58139 3.70978 6.45817 4.79134 6.45817Z" stroke="#CBCCCD" stroke-width="3.91667" stroke-linecap="round" stroke-linejoin="round"/>
</svg>
