<svg width="19" height="19" viewBox="0 0 19 19" fill="none" xmlns="http://www.w3.org/2000/svg">
<path fill-rule="evenodd" clip-rule="evenodd" d="M18.4635 10.1303C18.4949 10.0382 18.499 9.93972 18.4741 9.84571C17.8802 7.62006 6.85585 1.29342 3.39162 0.22972C2.48915 -0.0474835 1.83523 0.0641405 1.45131 0.560515C0.338518 1.99719 2.63661 6.46461 3.97779 8.8006L10.9258 9.04463C11.3284 9.05873 11.6433 9.39745 11.6292 9.80122C11.6152 10.205 11.2774 10.5209 10.8748 10.5068L3.86026 10.2597C2.35057 12.5262 -0.157362 16.7129 0.837116 18.1999C0.874381 18.2557 0.915202 18.3082 0.959626 18.356C1.32695 18.751 1.92866 18.8549 2.74903 18.6649C6.27668 17.8482 17.7148 12.3117 18.4635 10.1303Z" fill="#DDDDE4"/>
</svg>
