<svg width="23" height="23" viewBox="0 0 23 23" fill="none" xmlns="http://www.w3.org/2000/svg">
<path fill-rule="evenodd" clip-rule="evenodd" d="M17.7724 14.9099C14.6698 14.9099 14.6698 15.1446 14.6698 18.0125V18.0407C14.6698 19.2896 14.6698 20.1922 14.9756 20.5735C15.2746 20.9436 16.1625 21.1151 17.7724 21.1151C19.3824 21.1151 20.2703 20.9425 20.5692 20.5724C20.875 20.1922 20.875 19.2896 20.875 18.0396C20.875 15.1446 20.875 14.9099 17.7724 14.9099ZM17.7724 22.8075C15.8703 22.8075 14.4431 22.6078 13.659 21.6342C12.9775 20.7892 12.9775 19.6361 12.9775 18.0409L13.8237 18.0126H12.9775C12.9775 14.7747 13.1817 13.2178 17.7724 13.2178C22.3631 13.2178 22.5673 14.7747 22.5673 18.0126C22.5673 19.635 22.5673 20.7892 21.8858 21.6342C21.1017 22.6078 19.6746 22.8075 17.7724 22.8075Z" fill="#9E9E9E"/>
<path fill-rule="evenodd" clip-rule="evenodd" d="M5.36225 14.9099C2.25968 14.9099 2.25968 15.1446 2.25968 18.0125V18.0407C2.25968 19.2896 2.25968 20.1922 2.56543 20.5735C2.8644 20.9436 3.7523 21.1151 5.36225 21.1151C6.9722 21.1151 7.8601 20.9425 8.15907 20.5724C8.46481 20.1922 8.46481 19.2896 8.46481 18.0396C8.46481 15.1446 8.46481 14.9099 5.36225 14.9099ZM5.36225 22.8075C3.4601 22.8075 2.03292 22.6078 1.24882 21.6342C0.567383 20.7892 0.567383 19.6361 0.567383 18.0409L1.41354 18.0126H0.567383C0.567383 14.7747 0.771588 13.2178 5.36225 13.2178C9.95292 13.2178 10.1571 14.7747 10.1571 18.0126C10.1571 19.635 10.1571 20.7892 9.47569 21.6342C8.69159 22.6078 7.26441 22.8075 5.36225 22.8075Z" fill="#9E9E9E"/>
<path fill-rule="evenodd" clip-rule="evenodd" d="M17.7724 2.4999C14.6698 2.4999 14.6698 2.73456 14.6698 5.60246V5.63066C14.6698 6.87959 14.6698 7.78215 14.9756 8.16349C15.2746 8.53354 16.1625 8.70502 17.7724 8.70502C19.3824 8.70502 20.2703 8.53241 20.5692 8.16236C20.875 7.78215 20.875 6.87959 20.875 5.62954C20.875 2.73456 20.875 2.4999 17.7724 2.4999ZM17.7724 10.3974C15.8703 10.3974 14.4431 10.1977 13.659 9.22403C12.9775 8.379 12.9775 7.22598 12.9775 5.63069L13.8237 5.60249H12.9775C12.9775 2.36454 13.1817 0.807617 17.7724 0.807617C22.3631 0.807617 22.5673 2.36454 22.5673 5.60249C22.5673 7.22485 22.5673 8.379 21.8858 9.22403C21.1017 10.1977 19.6746 10.3974 17.7724 10.3974Z" fill="#9E9E9E"/>
<path fill-rule="evenodd" clip-rule="evenodd" d="M5.36225 2.4999C2.25968 2.4999 2.25968 2.73456 2.25968 5.60246V5.63066C2.25968 6.87959 2.25968 7.78215 2.56543 8.16349C2.8644 8.53354 3.7523 8.70502 5.36225 8.70502C6.9722 8.70502 7.8601 8.53241 8.15907 8.16236C8.46481 7.78215 8.46481 6.87959 8.46481 5.62954C8.46481 2.73456 8.46481 2.4999 5.36225 2.4999ZM5.36225 10.3974C3.4601 10.3974 2.03292 10.1977 1.24882 9.22403C0.567383 8.379 0.567383 7.22598 0.567383 5.63069L1.41354 5.60249H0.567383C0.567383 2.36454 0.771588 0.807617 5.36225 0.807617C9.95292 0.807617 10.1571 2.36454 10.1571 5.60249C10.1571 7.22485 10.1571 8.379 9.47569 9.22403C8.69159 10.1977 7.26441 10.3974 5.36225 10.3974Z" fill="#9E9E9E"/>
</svg>
