<svg width="25" height="25" viewBox="0 0 25 25" fill="none" xmlns="http://www.w3.org/2000/svg">
<path fill-rule="evenodd" clip-rule="evenodd" d="M1.64911 8.96867C0.889688 9.65215 0.456055 10.6258 0.456055 11.6475V20.8544C0.456055 22.8449 2.06963 24.4584 4.06006 24.4584H20.8787C22.8692 24.4584 24.4827 22.8449 24.4827 20.8544V11.6475C24.4827 10.6258 24.0491 9.65215 23.2897 8.96867L14.8804 1.40026C13.5098 0.166708 11.429 0.166708 10.0584 1.40027L1.64911 8.96867ZM11.2681 13.6464C9.94111 13.6464 8.8654 14.7221 8.8654 16.0491V20.8544C8.8654 21.5179 9.40326 22.0558 10.0667 22.0558H14.8721C15.5356 22.0558 16.0734 21.5179 16.0734 20.8544V16.0491C16.0734 14.7221 14.9977 13.6464 13.6707 13.6464H11.2681Z" fill="#9E9E9E"/>
</svg>
