<svg width="31" height="31" viewBox="0 0 31 31" fill="none" xmlns="http://www.w3.org/2000/svg">
<path fill-rule="evenodd" clip-rule="evenodd" d="M15.2239 15.4448C16.6253 15.4448 17.7612 14.3089 17.7612 12.9075C17.7612 11.5062 16.6253 10.3703 15.2239 10.3703C13.8226 10.3703 12.6867 11.5062 12.6867 12.9075C12.6867 14.3089 13.8226 15.4448 15.2239 15.4448ZM15.2239 17.982C18.0265 17.982 20.2985 15.7101 20.2985 12.9075C20.2985 10.1049 18.0265 7.83301 15.2239 7.83301C12.4214 7.83301 10.1494 10.1049 10.1494 12.9075C10.1494 15.7101 12.4214 17.982 15.2239 17.982Z" fill="#141416"/>
<path fill-rule="evenodd" clip-rule="evenodd" d="M23.5441 25.0212C26.2189 22.6953 27.9097 19.2675 27.9097 15.4446C27.9097 8.43815 22.2298 2.7583 15.2234 2.7583C8.21695 2.7583 2.53711 8.43815 2.53711 15.4446C2.53711 19.2675 4.22799 22.6953 6.90267 25.0212C9.13009 26.9582 12.0398 28.1309 15.2234 28.1309C18.2887 28.1309 21.1001 27.0437 23.293 25.234C23.3777 25.1641 23.4614 25.0932 23.5441 25.0212ZM15.5506 25.5884C15.442 25.5919 15.3329 25.5936 15.2234 25.5936C15.2125 25.5936 15.2015 25.5936 15.1905 25.5936C15.0886 25.5933 14.9868 25.5915 14.8856 25.5881C13.1827 25.5324 11.5859 25.0573 10.1953 24.2626C11.3564 22.756 13.1786 21.7877 15.2234 21.7877C17.2682 21.7877 19.0904 22.756 20.2515 24.2626C18.858 25.0589 17.2574 25.5344 15.5506 25.5884ZM22.28 22.739C20.6572 20.6182 18.1 19.2505 15.2234 19.2505C12.3468 19.2505 9.78961 20.6182 8.16677 22.739C6.25987 20.8937 5.07437 18.3076 5.07437 15.4446C5.07437 9.83944 9.61824 5.29556 15.2234 5.29556C20.8286 5.29556 25.3724 9.83944 25.3724 15.4446C25.3724 18.3076 24.1869 20.8937 22.28 22.739Z" fill="#141416"/>
</svg>
