<svg width="26" height="27" viewBox="0 0 26 27" fill="none" xmlns="http://www.w3.org/2000/svg">
<path fill-rule="evenodd" clip-rule="evenodd" d="M21.5441 23.0212C24.2189 20.6953 25.9097 17.2675 25.9097 13.4446C25.9097 6.43815 20.2298 0.758301 13.2234 0.758301C6.21695 0.758301 0.537109 6.43815 0.537109 13.4446C0.537109 17.2675 2.22799 20.6953 4.90267 23.0212C7.13009 24.9582 10.0398 26.1309 13.2234 26.1309C16.2887 26.1309 19.1001 25.0437 21.293 23.234C21.3777 23.1641 21.4614 23.0932 21.5441 23.0212ZM13.5506 23.5884C13.442 23.5919 13.3329 23.5936 13.2234 23.5936C13.2125 23.5936 13.2015 23.5936 13.1905 23.5936C13.0886 23.5933 12.9868 23.5915 12.8856 23.5881C11.1827 23.5324 9.5859 23.0573 8.19526 22.2626C9.35638 20.756 11.1786 19.7877 13.2234 19.7877C15.2682 19.7877 17.0904 20.756 18.2515 22.2626C16.858 23.0589 15.2574 23.5344 13.5506 23.5884ZM20.28 20.739C18.6572 18.6182 16.1 17.2505 13.2234 17.2505C10.3468 17.2505 7.78961 18.6182 6.16677 20.739C4.25987 18.8937 3.07437 16.3076 3.07437 13.4446C3.07437 7.83944 7.61824 3.29556 13.2234 3.29556C18.8286 3.29556 23.3724 7.83944 23.3724 13.4446C23.3724 16.3076 22.1869 18.8937 20.28 20.739Z" fill="#141416"/>
</svg>
